<svg width="1257" height="722" xmlns="http://www.w3.org/2000/svg" xmlns:xlink="http://www.w3.org/1999/xlink" overflow="hidden"><defs><clipPath id="clip0"><rect x="24" y="-1" width="1257" height="722"/></clipPath></defs><g clip-path="url(#clip0)" transform="translate(-24 1)"><path d="M476 164C491.464 164 504 176.536 504 192 504 207.464 491.464 220 476 220 460.536 220 448 207.464 448 192 448 176.536 460.536 164 476 164Z" fill="#FFFFFF" fill-rule="evenodd"/><path d="M779 0 834.592 0 835.381 7.83195C840.579 33.2525 863.058 52.3749 890 52.3749L890 108C836.193 108 791.301 69.8104 780.919 19.0424Z" fill="#FFFFFF" fill-rule="evenodd"/><path d="M693 52C708.464 52 721 64.536 721 80 721 95.464 708.464 108 693 108 677.536 108 665 95.464 665 80 665 64.536 677.536 52 693 52Z" fill="#FFFFFF" fill-rule="evenodd"/><path d="M947 0 1003 0 1003 136 947 136Z" fill="#FA4616" fill-rule="evenodd"/><path d="M1088 0 1143.81 0 1144.6 7.83806C1149.82 33.257 1172.39 52.3782 1199.44 52.3782 1226.48 52.3782 1249.05 33.257 1254.27 7.83806L1255.06 0 1280 0 1280 73.6993 1278.48 75.3705C1258.25 95.5307 1230.3 108 1199.44 108 1145.42 108 1100.35 69.8127 1089.93 19.0478Z" fill="#FFFFFF" fill-rule="evenodd"/><path d="M558 109 613 109 613 276 558 276Z" fill="#FFFFFF" fill-rule="evenodd"/><path d="M667 164 834 164 834 220 667 220Z" fill="#FFFFFF" fill-rule="evenodd"/><path d="M1224 164 1280 164 1280 332 1224 332Z" fill="#FFFFFF" fill-rule="evenodd"/><path d="M1224 444 1280 444 1280 611 1224 611Z" fill="#FFFFFF" fill-rule="evenodd"/><path d="M1002 664 1170 664 1170 720 1002 720Z" fill="#FFFFFF" fill-rule="evenodd"/><path d="M1142.5 499C1157.69 499 1170 511.536 1170 527 1170 542.464 1157.69 555 1142.5 555 1127.31 555 1115 542.464 1115 527 1115 511.536 1127.31 499 1142.5 499Z" fill="#FFFFFF" fill-rule="evenodd"/><path d="M835 277 891 277 891 444 835 444Z" fill="#FFFFFF" fill-rule="evenodd"/><path d="M779 498 834.919 498C834.919 528.972 860.028 554.081 891 554.081 921.972 554.081 947.081 528.972 947.081 498L1003 498C1003 559.856 952.856 610 891 610 829.144 610 779 559.856 779 498Z" fill="#FA4616" fill-rule="evenodd"/><path d="M0 0 55.6697 0C55.6697 30.6959 80.6658 55.5799 111.5 55.5799 142.334 55.5799 167.33 30.6959 167.33 0L223 0C223 61.3036 173.08 111 111.5 111 49.9202 111 0 61.3036 0 0Z" fill="#FFFFFF" fill-rule="evenodd" transform="matrix(1 0 0 -1 947 443)"/><path d="M0 0 55.6697 0C55.6697 30.9724 80.6658 56.0807 111.5 56.0807 142.334 56.0807 167.33 30.9724 167.33 0L223 0C223 61.8559 173.08 112 111.5 112 49.9202 112 0 61.8559 0 0Z" fill="#FFFFFF" fill-rule="evenodd" transform="matrix(1 0 0 -1 25 611)"/><path d="M304 500 472 500 472 556 304 556Z" fill="#FFFFFF" fill-rule="evenodd"/><path d="M411 612 411 667.625C384.058 667.625 361.579 686.748 356.381 712.168L355.592 720 300 720 301.918 700.958C312.301 650.19 357.193 612 411 612Z" fill="#FFFFFF" fill-rule="evenodd"/><path d="M1114.5 221C1129.69 221 1142 233.536 1142 249 1142 264.464 1129.69 277 1114.5 277 1099.31 277 1087 264.464 1087 249 1087 233.536 1099.31 221 1114.5 221Z" fill="#FA4616" fill-rule="evenodd"/></g></svg>