<svg xmlns="http://www.w3.org/2000/svg" width="172" height="26" viewBox="0 0 172 26">
    <g fill="none" fill-rule="evenodd">
        <path fill="#FA4616" fill-rule="nonzero" d="M0 0h25.345v25.292H0V0zm2.627 22.67h20.092V2.622H2.627v20.05zM12.765 6.53h2.627v7.656c0 3.472-1.959 5.542-5.3 5.542-3.249 0-5.184-2.047-5.184-5.542V6.53h2.626v7.656c0 1.932.807 3.081 2.627 3.081 1.751 0 2.604-1.103 2.604-3.08V6.53zm7.603 0a1.596 1.596 0 0 1-1.635 1.563 1.613 1.613 0 0 1-1.567-1.563c0-.897.714-1.61 1.613-1.61.875 0 1.59.713 1.59 1.61zm-2.903 2.805h2.627v10.278h-2.627V9.335zm20.207 1.586c0 2.806-1.866 4.484-4.723 4.484h-2.373v4.23h-2.627V6.53h5c2.903 0 4.723 1.678 4.723 4.391zm-2.65 0c0-1.425-.829-2.276-2.326-2.276h-2.097v4.668h2.097c1.497-.023 2.327-.851 2.327-2.392zm11.475-1.586h2.627v10.278h-2.627V18.44c-.691.828-1.797 1.288-3.34 1.288-2.789 0-4.77-2.208-4.77-5.266 0-3.035 1.935-5.288 4.77-5.288 1.497 0 2.649.529 3.34 1.426V9.335zm0 5.15c0-1.77-1.06-2.989-2.719-2.989-1.659 0-2.719 1.173-2.719 2.99 0 1.7.922 2.965 2.72 2.965 1.612-.023 2.718-1.172 2.718-2.966zm9.032 2.897h1.037v2.23h-1.382c-2.489 0-3.572-1.172-3.572-3.61v-4.46h-1.22V9.335h1.22V6.53h2.627v2.805h2.304v2.207H54.24v4.484c0 .897.277 1.356 1.29 1.356zm12.35-3.747v5.978h-2.626v-5.68c0-1.563-.807-2.575-2.35-2.575-1.544 0-2.466 1.058-2.466 2.805v5.45H57.81V5.886h2.627v4.507c.645-.782 1.682-1.196 3.11-1.196 2.443-.023 4.332 1.747 4.332 4.438zm-.53-7.749h1.383v.276h-.507v1.632h-.346V6.162h-.53v-.276zm3.848 0v1.908h-.322V6.37l-.6 1.425h-.253L69.4 6.37v1.425h-.276V5.886h.391l.623 1.495.645-1.495h.414z"/>
        <!-- <text fill="#2D2E2F" font-family="Poppins-SemiBold, Poppins" font-size="18" font-weight="500">
            <tspan x="81" y="20">DemoApp</tspan>
        </text> -->
    </g>
</svg>
